<svg xmlns="http://www.w3.org/2000/svg" viewBox="0 0 200 200" role="img" aria-label="Burghscape">
  <defs>
    <linearGradient id="bg" x1="0%" y1="0%" x2="100%" y2="100%">
      <stop offset="0%" style="stop-color:#1a1a3e"/>
      <stop offset="100%" style="stop-color:#0d0d24"/>
    </linearGradient>
    <linearGradient id="accent" x1="0%" y1="0%" x2="100%" y2="100%">
      <stop offset="0%" style="stop-color:#a78bfa"/>
      <stop offset="100%" style="stop-color:#7c3aed"/>
    </linearGradient>
    <filter id="glow">
      <feGaussianBlur stdDeviation="2" result="blur"/>
      <feMerge><feMergeNode in="blur"/><feMergeNode in="SourceGraphic"/></feMerge>
    </filter>
  </defs>
  <circle cx="100" cy="100" r="95" fill="url(#bg)" stroke="url(#accent)" stroke-width="2" opacity="0.9"/>
  <path d="M100 30 L150 50 L150 100 Q150 140 100 170 Q50 140 50 100 L50 50 Z" fill="none" stroke="#a78bfa" stroke-width="2.5" filter="url(#glow)"/>
  <path d="M100 60 L130 80 L130 120 L70 120 L70 80 Z" fill="none" stroke="#c4b5fd" stroke-width="2"/>
  <line x1="100" y1="60" x2="100" y2="80" stroke="#c4b5fd" stroke-width="2"/>
  <rect x="92" y="100" width="16" height="20" fill="#a78bfa" rx="2"/>
  <circle cx="100" cy="45" r="4" fill="#a78bfa"/>
  <circle cx="75" cy="100" r="3" fill="#7c3aed"/>
  <circle cx="125" cy="100" r="3" fill="#7c3aed"/>
  <path d="M60 70 Q55 80 60 90" fill="none" stroke="#7c3aed" stroke-width="1.5" opacity="0.6"/>
  <path d="M140 70 Q145 80 140 90" fill="none" stroke="#7c3aed" stroke-width="1.5" opacity="0.6"/>
</svg>
